<svg width="19" height="19" viewBox="0 0 19 19" fill="none" xmlns="http://www.w3.org/2000/svg">
<path d="M10.4373 8.39598L3.86716 14.9661M4.57621 10.1979L1.35805 9.43773C1.00398 9.35409 0.879456 8.91453 1.13594 8.65712L3.69524 6.09782C3.86716 5.9259 4.10041 5.8274 4.34482 5.82554L7.23029 5.80045M10.8648 2.49864C13.0124 3.96322 14.8701 5.82089 16.3346 7.96851M8.63447 14.2571L9.39463 17.4752C9.47827 17.8293 9.91783 17.9538 10.1752 17.6974L12.7345 15.1381C12.9065 14.9661 13.005 14.7329 13.0068 14.4885L13.0319 11.603M16.8857 6.45839L17.6366 2.84527C17.841 1.86207 16.9712 0.992247 15.988 1.19669L12.3749 1.94757C11.3109 2.16874 10.3351 2.69565 9.56748 3.46419L6.60302 6.42773C5.47206 7.55868 4.73605 9.02512 4.50373 10.6077L4.4935 10.6756C4.34668 11.6857 4.68494 12.7052 5.40608 13.4272C6.12721 14.1484 7.14759 14.4866 8.15774 14.3389L8.22557 14.3286C9.80817 14.0972 11.2746 13.3603 12.4056 12.2293L15.3691 9.26581C16.1376 8.49821 16.6645 7.52244 16.8857 6.45839Z" stroke="#F9FAFB" stroke-width="1.2" stroke-linecap="round" stroke-linejoin="round"/>
</svg>
