<svg width="183" height="40" viewBox="0 0 183 40" fill="none" xmlns="http://www.w3.org/2000/svg">
<path fill-rule="evenodd" clip-rule="evenodd" d="M16.284 5.32663C13.0005 5.053 9.25338 6.76028 7.43814 7.84846C7.22981 7.97335 7.2086 8.26152 7.38915 8.42402L12.4776 13.0036C12.5455 13.0647 12.6337 13.0986 12.7251 13.0986H18.1345C18.3389 13.0986 18.5046 13.2643 18.5046 13.4687V19.0201C18.5046 19.0532 18.5003 19.0853 18.4921 19.1159L17.0117 17.6355C17.0199 17.6049 17.0243 17.5728 17.0243 17.5397V14.5789C17.0243 14.3745 16.8586 14.2088 16.6542 14.2088H13.6934C13.489 14.2088 13.3233 14.3745 13.3233 14.5789V17.5397C13.3233 17.562 13.3253 17.5839 13.3291 17.6051L12.2785 18.6557C12.2572 18.6519 12.2354 18.6499 12.213 18.6499H8.14199C8.10883 18.6499 8.07669 18.6543 8.04611 18.6625L7.01916 17.6355C7.02733 17.605 7.03169 17.5728 7.03169 17.5397V16.4294C7.03169 16.3858 7.02416 16.344 7.01032 16.3052L8.01778 15.2977C8.0566 15.3115 8.09842 15.3191 8.14199 15.3191H10.3625C10.5669 15.3191 10.7326 15.1534 10.7326 14.949V12.7284C10.7326 12.524 10.5669 12.3583 10.3625 12.3583H8.14199C8.10883 12.3583 8.07669 12.3627 8.04611 12.3709L7.01918 11.3439C7.02734 11.3134 7.03169 11.2813 7.03169 11.2481V10.1379C7.03169 9.93347 6.86599 9.76777 6.6616 9.76777H5.55132C5.34692 9.76777 5.18123 9.93347 5.18123 10.1379V11.2481C5.18123 11.4525 5.34692 11.6182 5.55132 11.6182H6.6616C6.69478 11.6182 6.72694 11.6139 6.75754 11.6057L7.78443 12.6326C7.77626 12.6631 7.7719 12.6953 7.7719 12.7284V14.949C7.7719 14.9713 7.77388 14.9932 7.77767 15.0144L6.72701 16.0651C6.70578 16.0613 6.68392 16.0593 6.6616 16.0593H5.55132C5.34692 16.0593 5.18123 16.225 5.18123 16.4294V17.5397C5.18123 17.7441 5.34692 17.9098 5.55132 17.9098H6.6616C6.69476 17.9098 6.72691 17.9054 6.75749 17.8972L7.78443 18.9242C7.77626 18.9548 7.7719 18.9869 7.7719 19.02V23.091C7.7719 23.1134 7.77387 23.1352 7.77766 23.1564L6.72697 24.2071C6.70575 24.2033 6.68392 24.2014 6.66162 24.2014H4.07097C3.86657 24.2014 3.70088 24.3671 3.70088 24.5715V27.1621C3.70088 27.3665 3.86657 27.5322 4.07097 27.5322H6.66162C6.86602 27.5322 7.03171 27.3665 7.03171 27.1621V24.5715C7.03171 24.5279 7.02417 24.486 7.01032 24.4472L8.01772 23.4398C8.05656 23.4536 8.0984 23.4611 8.14199 23.4611H12.213C12.2462 23.4611 12.2783 23.4568 12.3089 23.4486L13.3359 24.4756C13.3277 24.5062 13.3233 24.5383 13.3233 24.5715V26.792C13.3233 26.8411 13.3329 26.8879 13.3502 26.9307L12.6654 27.9114C12.6389 27.9054 12.6114 27.9022 12.5831 27.9022H11.1028C10.8984 27.9022 10.7327 28.0679 10.7327 28.2723V29.7527C10.7327 29.9571 10.8984 30.1228 11.1028 30.1228H12.5831C12.7875 30.1228 12.9532 29.9571 12.9532 29.7527V28.2723C12.9532 28.2358 12.9479 28.2006 12.9381 28.1673L13.6424 27.1586C13.6591 27.1609 13.6761 27.1621 13.6934 27.1621H15.914C16.1184 27.1621 16.2841 26.9964 16.2841 26.792V24.5715C16.2841 24.3671 16.1184 24.2014 15.914 24.2014H13.6934C13.6603 24.2014 13.6281 24.2057 13.5975 24.2139L12.5706 23.1869C12.5787 23.1563 12.5831 23.1242 12.5831 23.091V19.02C12.5831 18.9765 12.5756 18.9347 12.5618 18.8958L13.5692 17.8884C13.608 17.9022 13.6498 17.9098 13.6934 17.9098H16.6542C16.6873 17.9098 16.7195 17.9054 16.7501 17.8972L18.2305 19.3776C18.1999 19.3858 18.1677 19.3902 18.1345 19.3902H14.4336C14.2292 19.3902 14.0635 19.5559 14.0635 19.7603V22.721C14.0635 22.9254 14.2292 23.0911 14.4336 23.0911H16.8392C17.0436 23.0911 17.2093 23.2568 17.2093 23.4612V26.8238C17.2093 26.9219 17.1716 27.0145 17.1028 27.0845C15.5516 28.6611 11.8601 32.9242 12.5831 34.0088C13.2478 35.0059 18.9861 34.6599 20.1498 34.579C20.2792 34.5699 20.3913 34.4906 20.4512 34.3756C23.0541 29.3782 27.3982 29.1976 28.3121 29.1976C28.5241 29.1976 28.7362 29.2171 28.9416 29.2359L28.9416 29.2359C29.6323 29.2992 30.2474 29.3556 30.5326 28.6425C30.7649 28.0617 30.5598 27.408 30.3748 26.8187C30.2651 26.4692 30.1625 26.1424 30.1625 25.8668C30.1625 25.4332 30.2895 25.1266 30.3947 24.8726C30.4691 24.693 30.5326 24.5397 30.5326 24.3864C30.5326 24.1899 30.3424 23.9281 30.1784 23.7202C30.0625 23.5733 30.0904 23.3739 30.2074 23.2279C30.4473 22.9286 30.494 22.6052 30.3476 22.1659C30.3202 22.0838 30.2848 21.9937 30.2467 21.8967C30.0267 21.3373 29.7168 20.5488 30.3476 19.7603C31.0878 18.835 30.5326 17.5397 29.9775 17.1696C29.4223 16.7995 27.2018 15.1341 27.0167 14.3939C26.9702 14.2077 26.9758 13.9981 26.9824 13.7504C27.0021 13.0133 27.0309 11.9384 25.7214 10.1378C23.9719 7.73224 20.7252 5.69672 16.284 5.32663ZM7.03172 28.6424C7.03172 28.438 7.19742 28.2723 7.40182 28.2723H9.25228C9.45668 28.2723 9.62237 28.438 9.62237 28.6424V30.4929C9.62237 30.6973 9.45668 30.863 9.25228 30.863H7.40182C7.19742 30.863 7.03172 30.6973 7.03172 30.4929V28.6424ZM5.18129 31.2331C4.97689 31.2331 4.8112 31.3988 4.8112 31.6032V32.3434C4.8112 32.5478 4.97689 32.7135 5.18129 32.7135H5.92148C6.12587 32.7135 6.29157 32.5478 6.29157 32.3434V31.6032C6.29157 31.3988 6.12587 31.2331 5.92148 31.2331H5.18129ZM2.22058 19.3902C2.22058 19.1858 2.38628 19.0201 2.59068 19.0201H4.07105C4.27545 19.0201 4.44114 19.1858 4.44114 19.3902V20.8705C4.44114 21.0749 4.27545 21.2406 4.07105 21.2406H2.59068C2.38628 21.2406 2.22058 21.0749 2.22058 20.8705V19.3902ZM3.70094 12.3583C3.49654 12.3583 3.33085 12.524 3.33085 12.7284V13.4686C3.33085 13.673 3.49654 13.8387 3.70094 13.8387H4.44113C4.64552 13.8387 4.81122 13.673 4.81122 13.4686V12.7284C4.81122 12.524 4.64552 12.3583 4.44113 12.3583H3.70094ZM0.370088 22.7867C0.370088 22.5823 0.535784 22.4166 0.74018 22.4166H1.11027C1.31467 22.4166 1.48037 22.5823 1.48037 22.7867V23.1568C1.48037 23.3612 1.31467 23.5269 1.11027 23.5269H0.74018C0.535784 23.5269 0.370088 23.3612 0.370088 23.1568V22.7867ZM0.370093 17.1696C0.165696 17.1696 0 17.3353 0 17.5397V18.2799C0 18.4843 0.165697 18.65 0.370093 18.65H1.11028C1.31468 18.65 1.48037 18.4843 1.48037 18.2799V17.5397C1.48037 17.3353 1.31467 17.1696 1.11028 17.1696H0.370093Z" fill="url(#paint0_linear_61_15346)"/>
<path fill-rule="evenodd" clip-rule="evenodd" d="M16.284 5.32663C13.0005 5.053 9.25338 6.76028 7.43814 7.84846C7.22981 7.97335 7.2086 8.26152 7.38915 8.42402L12.4776 13.0036C12.5455 13.0647 12.6337 13.0986 12.7251 13.0986H18.1345C18.3389 13.0986 18.5046 13.2643 18.5046 13.4687V19.0201C18.5046 19.0532 18.5003 19.0853 18.4921 19.1159L17.0117 17.6355C17.0199 17.6049 17.0243 17.5728 17.0243 17.5397V14.5789C17.0243 14.3745 16.8586 14.2088 16.6542 14.2088H13.6934C13.489 14.2088 13.3233 14.3745 13.3233 14.5789V17.5397C13.3233 17.562 13.3253 17.5839 13.3291 17.6051L12.2785 18.6557C12.2572 18.6519 12.2354 18.6499 12.213 18.6499H8.14199C8.10883 18.6499 8.07669 18.6543 8.04611 18.6625L7.01916 17.6355C7.02733 17.605 7.03169 17.5728 7.03169 17.5397V16.4294C7.03169 16.3858 7.02416 16.344 7.01032 16.3052L8.01778 15.2977C8.0566 15.3115 8.09842 15.3191 8.14199 15.3191H10.3625C10.5669 15.3191 10.7326 15.1534 10.7326 14.949V12.7284C10.7326 12.524 10.5669 12.3583 10.3625 12.3583H8.14199C8.10883 12.3583 8.07669 12.3627 8.04611 12.3709L7.01918 11.3439C7.02734 11.3134 7.03169 11.2813 7.03169 11.2481V10.1379C7.03169 9.93347 6.86599 9.76777 6.6616 9.76777H5.55132C5.34692 9.76777 5.18123 9.93347 5.18123 10.1379V11.2481C5.18123 11.4525 5.34692 11.6182 5.55132 11.6182H6.6616C6.69478 11.6182 6.72694 11.6139 6.75754 11.6057L7.78443 12.6326C7.77626 12.6631 7.7719 12.6953 7.7719 12.7284V14.949C7.7719 14.9713 7.77388 14.9932 7.77767 15.0144L6.72701 16.0651C6.70578 16.0613 6.68392 16.0593 6.6616 16.0593H5.55132C5.34692 16.0593 5.18123 16.225 5.18123 16.4294V17.5397C5.18123 17.7441 5.34692 17.9098 5.55132 17.9098H6.6616C6.69476 17.9098 6.72691 17.9054 6.75749 17.8972L7.78443 18.9242C7.77626 18.9548 7.7719 18.9869 7.7719 19.02V23.091C7.7719 23.1134 7.77387 23.1352 7.77766 23.1564L6.72697 24.2071C6.70575 24.2033 6.68392 24.2014 6.66162 24.2014H4.07097C3.86657 24.2014 3.70088 24.3671 3.70088 24.5715V27.1621C3.70088 27.3665 3.86657 27.5322 4.07097 27.5322H6.66162C6.86602 27.5322 7.03171 27.3665 7.03171 27.1621V24.5715C7.03171 24.5279 7.02417 24.486 7.01032 24.4472L8.01772 23.4398C8.05656 23.4536 8.0984 23.4611 8.14199 23.4611H12.213C12.2462 23.4611 12.2783 23.4568 12.3089 23.4486L13.3359 24.4756C13.3277 24.5062 13.3233 24.5383 13.3233 24.5715V26.792C13.3233 26.8411 13.3329 26.8879 13.3502 26.9307L12.6654 27.9114C12.6389 27.9054 12.6114 27.9022 12.5831 27.9022H11.1028C10.8984 27.9022 10.7327 28.0679 10.7327 28.2723V29.7527C10.7327 29.9571 10.8984 30.1228 11.1028 30.1228H12.5831C12.7875 30.1228 12.9532 29.9571 12.9532 29.7527V28.2723C12.9532 28.2358 12.9479 28.2006 12.9381 28.1673L13.6424 27.1586C13.6591 27.1609 13.6761 27.1621 13.6934 27.1621H15.914C16.1184 27.1621 16.2841 26.9964 16.2841 26.792V24.5715C16.2841 24.3671 16.1184 24.2014 15.914 24.2014H13.6934C13.6603 24.2014 13.6281 24.2057 13.5975 24.2139L12.5706 23.1869C12.5787 23.1563 12.5831 23.1242 12.5831 23.091V19.02C12.5831 18.9765 12.5756 18.9347 12.5618 18.8958L13.5692 17.8884C13.608 17.9022 13.6498 17.9098 13.6934 17.9098H16.6542C16.6873 17.9098 16.7195 17.9054 16.7501 17.8972L18.2305 19.3776C18.1999 19.3858 18.1677 19.3902 18.1345 19.3902H14.4336C14.2292 19.3902 14.0635 19.5559 14.0635 19.7603V22.721C14.0635 22.9254 14.2292 23.0911 14.4336 23.0911H16.8392C17.0436 23.0911 17.2093 23.2568 17.2093 23.4612V26.8238C17.2093 26.9219 17.1716 27.0145 17.1028 27.0845C15.5516 28.6611 11.8601 32.9242 12.5831 34.0088C13.2478 35.0059 18.9861 34.6599 20.1498 34.579C20.2792 34.5699 20.3913 34.4906 20.4512 34.3756C23.0541 29.3782 27.3982 29.1976 28.3121 29.1976C28.5241 29.1976 28.7362 29.2171 28.9416 29.2359L28.9416 29.2359C29.6323 29.2992 30.2474 29.3556 30.5326 28.6425C30.7649 28.0617 30.5598 27.408 30.3748 26.8187C30.2651 26.4692 30.1625 26.1424 30.1625 25.8668C30.1625 25.4332 30.2895 25.1266 30.3947 24.8726C30.4691 24.693 30.5326 24.5397 30.5326 24.3864C30.5326 24.1899 30.3424 23.9281 30.1784 23.7202C30.0625 23.5733 30.0904 23.3739 30.2074 23.2279C30.4473 22.9286 30.494 22.6052 30.3476 22.1659C30.3202 22.0838 30.2848 21.9937 30.2467 21.8967C30.0267 21.3373 29.7168 20.5488 30.3476 19.7603C31.0878 18.835 30.5326 17.5397 29.9775 17.1696C29.4223 16.7995 27.2018 15.1341 27.0167 14.3939C26.9702 14.2077 26.9758 13.9981 26.9824 13.7504C27.0021 13.0133 27.0309 11.9384 25.7214 10.1378C23.9719 7.73224 20.7252 5.69672 16.284 5.32663ZM7.03172 28.6424C7.03172 28.438 7.19742 28.2723 7.40182 28.2723H9.25228C9.45668 28.2723 9.62237 28.438 9.62237 28.6424V30.4929C9.62237 30.6973 9.45668 30.863 9.25228 30.863H7.40182C7.19742 30.863 7.03172 30.6973 7.03172 30.4929V28.6424ZM5.18129 31.2331C4.97689 31.2331 4.8112 31.3988 4.8112 31.6032V32.3434C4.8112 32.5478 4.97689 32.7135 5.18129 32.7135H5.92148C6.12587 32.7135 6.29157 32.5478 6.29157 32.3434V31.6032C6.29157 31.3988 6.12587 31.2331 5.92148 31.2331H5.18129ZM2.22058 19.3902C2.22058 19.1858 2.38628 19.0201 2.59068 19.0201H4.07105C4.27545 19.0201 4.44114 19.1858 4.44114 19.3902V20.8705C4.44114 21.0749 4.27545 21.2406 4.07105 21.2406H2.59068C2.38628 21.2406 2.22058 21.0749 2.22058 20.8705V19.3902ZM3.70094 12.3583C3.49654 12.3583 3.33085 12.524 3.33085 12.7284V13.4686C3.33085 13.673 3.49654 13.8387 3.70094 13.8387H4.44113C4.64552 13.8387 4.81122 13.673 4.81122 13.4686V12.7284C4.81122 12.524 4.64552 12.3583 4.44113 12.3583H3.70094ZM0.370088 22.7867C0.370088 22.5823 0.535784 22.4166 0.74018 22.4166H1.11027C1.31467 22.4166 1.48037 22.5823 1.48037 22.7867V23.1568C1.48037 23.3612 1.31467 23.5269 1.11027 23.5269H0.74018C0.535784 23.5269 0.370088 23.3612 0.370088 23.1568V22.7867ZM0.370093 17.1696C0.165696 17.1696 0 17.3353 0 17.5397V18.2799C0 18.4843 0.165697 18.65 0.370093 18.65H1.11028C1.31468 18.65 1.48037 18.4843 1.48037 18.2799V17.5397C1.48037 17.3353 1.31467 17.1696 1.11028 17.1696H0.370093Z" fill="#7F56D9"/>
<path d="M51.4179 29.2076C49.8439 29.2076 48.6157 28.7924 47.7336 27.9622C46.8514 27.1146 46.4103 25.9211 46.4103 24.3816V9.74811H50.4579V24.1481C50.4579 24.7362 50.6049 25.1946 50.899 25.5232C51.2103 25.8346 51.6428 25.9903 52.1963 25.9903C52.4039 25.9903 52.6114 25.9643 52.819 25.9124C53.0439 25.8605 53.2168 25.8 53.3379 25.7308L53.5195 28.8703C52.8449 29.0951 52.1444 29.2076 51.4179 29.2076ZM62.2846 25.9643C63.0111 25.9643 63.6511 25.8605 64.2046 25.653C64.7754 25.4281 65.303 25.0822 65.7873 24.6151L67.9408 26.9503C66.6262 28.4551 64.7062 29.2076 62.1808 29.2076C60.6068 29.2076 59.2143 28.9049 58.0035 28.2995C56.7927 27.6768 55.8587 26.8205 55.2014 25.7308C54.5441 24.6411 54.2154 23.4043 54.2154 22.0205C54.2154 20.6541 54.5354 19.4259 55.1754 18.3362C55.8327 17.2292 56.7235 16.373 57.8478 15.7676C58.9895 15.1449 60.2695 14.8335 61.6878 14.8335C63.0197 14.8335 64.2305 15.1189 65.3203 15.6897C66.41 16.2432 67.2749 17.0562 67.9149 18.1286C68.5722 19.1838 68.9008 20.4378 68.9008 21.8908L58.5743 23.8886C58.8684 24.5805 59.3268 25.0995 59.9495 25.4454C60.5895 25.7914 61.3678 25.9643 62.2846 25.9643ZM61.6878 17.8951C60.6673 17.8951 59.837 18.2238 59.197 18.8811C58.557 19.5384 58.2197 20.4465 58.1851 21.6054L64.983 20.2822C64.7927 19.5557 64.4035 18.9762 63.8154 18.5438C63.2273 18.1114 62.5181 17.8951 61.6878 17.8951ZM78.6528 25.9643C79.3793 25.9643 80.0193 25.8605 80.5728 25.653C81.1437 25.4281 81.6712 25.0822 82.1555 24.6151L84.3091 26.9503C82.9945 28.4551 81.0745 29.2076 78.5491 29.2076C76.975 29.2076 75.5826 28.9049 74.3718 28.2995C73.161 27.6768 72.2269 26.8205 71.5696 25.7308C70.9123 24.6411 70.5837 23.4043 70.5837 22.0205C70.5837 20.6541 70.9037 19.4259 71.5437 18.3362C72.201 17.2292 73.0918 16.373 74.2161 15.7676C75.3577 15.1449 76.6377 14.8335 78.0561 14.8335C79.388 14.8335 80.5988 15.1189 81.6885 15.6897C82.7782 16.2432 83.6431 17.0562 84.2831 18.1286C84.9404 19.1838 85.2691 20.4378 85.2691 21.8908L74.9426 23.8886C75.2366 24.5805 75.695 25.0995 76.3177 25.4454C76.9577 25.7914 77.7361 25.9643 78.6528 25.9643ZM78.0561 17.8951C77.0355 17.8951 76.2053 18.2238 75.5653 18.8811C74.9253 19.5384 74.588 20.4465 74.5534 21.6054L81.3512 20.2822C81.161 19.5557 80.7718 18.9762 80.1837 18.5438C79.5955 18.1114 78.8864 17.8951 78.0561 17.8951ZM95.0211 25.9643C95.7476 25.9643 96.3876 25.8605 96.9411 25.653C97.5119 25.4281 98.0395 25.0822 98.5238 24.6151L100.677 26.9503C99.3627 28.4551 97.4427 29.2076 94.9173 29.2076C93.3432 29.2076 91.9508 28.9049 90.74 28.2995C89.5292 27.6768 88.5951 26.8205 87.9378 25.7308C87.2805 24.6411 86.9519 23.4043 86.9519 22.0205C86.9519 20.6541 87.2719 19.4259 87.9119 18.3362C88.5692 17.2292 89.46 16.373 90.5843 15.7676C91.726 15.1449 93.006 14.8335 94.4243 14.8335C95.7562 14.8335 96.967 15.1189 98.0568 15.6897C99.1465 16.2432 100.011 17.0562 100.651 18.1286C101.309 19.1838 101.637 20.4378 101.637 21.8908L91.3108 23.8886C91.6049 24.5805 92.0632 25.0995 92.686 25.4454C93.326 25.7914 94.1043 25.9643 95.0211 25.9643ZM94.4243 17.8951C93.4038 17.8951 92.5735 18.2238 91.9335 18.8811C91.2935 19.5384 90.9562 20.4465 90.9216 21.6054L97.7195 20.2822C97.5292 19.5557 97.14 18.9762 96.5519 18.5438C95.9638 18.1114 95.2546 17.8951 94.4243 17.8951ZM118.524 15.0411V29H114.659V27.3914C113.655 28.6022 112.202 29.2076 110.3 29.2076C108.985 29.2076 107.791 28.9135 106.719 28.3254C105.664 27.7373 104.834 26.8984 104.228 25.8086C103.623 24.7189 103.32 23.4562 103.32 22.0205C103.32 20.5849 103.623 19.3222 104.228 18.2324C104.834 17.1427 105.664 16.3038 106.719 15.7157C107.791 15.1276 108.985 14.8335 110.3 14.8335C112.081 14.8335 113.474 15.3957 114.477 16.52V15.0411H118.524ZM111 25.8865C112.021 25.8865 112.868 25.5405 113.543 24.8486C114.217 24.1395 114.555 23.1968 114.555 22.0205C114.555 20.8443 114.217 19.9103 113.543 19.2184C112.868 18.5092 112.021 18.1546 111 18.1546C109.962 18.1546 109.106 18.5092 108.431 19.2184C107.757 19.9103 107.42 20.8443 107.42 22.0205C107.42 23.1968 107.757 24.1395 108.431 24.8486C109.106 25.5405 109.962 25.8865 111 25.8865ZM126.138 16.8832C126.622 16.2086 127.271 15.6984 128.084 15.3524C128.914 15.0065 129.865 14.8335 130.938 14.8335V18.5697C130.488 18.5351 130.185 18.5178 130.03 18.5178C128.871 18.5178 127.963 18.8465 127.305 19.5038C126.648 20.1438 126.319 21.1124 126.319 22.4097V29H122.272V15.0411H126.138V16.8832ZM141.829 14.8335C143.559 14.8335 144.951 15.3524 146.006 16.3903C147.079 17.4281 147.615 18.9676 147.615 21.0086V29H143.567V21.6314C143.567 20.5243 143.325 19.7027 142.841 19.1665C142.356 18.613 141.656 18.3362 140.739 18.3362C139.719 18.3362 138.906 18.6562 138.3 19.2962C137.695 19.9189 137.392 20.853 137.392 22.0984V29H133.344V15.0411H137.21V16.6757C137.747 16.0876 138.413 15.6378 139.208 15.3265C140.004 14.9978 140.877 14.8335 141.829 14.8335ZM152.814 29.2076C152.105 29.2076 151.509 28.9654 151.024 28.4811C150.54 27.9968 150.298 27.3914 150.298 26.6649C150.298 25.9211 150.54 25.3243 151.024 24.8746C151.509 24.4076 152.105 24.1741 152.814 24.1741C153.524 24.1741 154.12 24.4076 154.605 24.8746C155.089 25.3243 155.331 25.9211 155.331 26.6649C155.331 27.3914 155.089 27.9968 154.605 28.4811C154.12 28.9654 153.524 29.2076 152.814 29.2076ZM172.063 15.0411V29H168.197V27.3914C167.194 28.6022 165.741 29.2076 163.838 29.2076C162.524 29.2076 161.33 28.9135 160.258 28.3254C159.203 27.7373 158.373 26.8984 157.767 25.8086C157.162 24.7189 156.859 23.4562 156.859 22.0205C156.859 20.5849 157.162 19.3222 157.767 18.2324C158.373 17.1427 159.203 16.3038 160.258 15.7157C161.33 15.1276 162.524 14.8335 163.838 14.8335C165.62 14.8335 167.013 15.3957 168.016 16.52V15.0411H172.063ZM164.539 25.8865C165.56 25.8865 166.407 25.5405 167.082 24.8486C167.756 24.1395 168.094 23.1968 168.094 22.0205C168.094 20.8443 167.756 19.9103 167.082 19.2184C166.407 18.5092 165.56 18.1546 164.539 18.1546C163.501 18.1546 162.645 18.5092 161.97 19.2184C161.296 19.9103 160.958 20.8443 160.958 22.0205C160.958 23.1968 161.296 24.1395 161.97 24.8486C162.645 25.5405 163.501 25.8865 164.539 25.8865ZM175.811 15.0411H179.858V29H175.811V15.0411ZM177.834 13.0951C177.091 13.0951 176.485 12.8789 176.018 12.4465C175.551 12.0141 175.318 11.4778 175.318 10.8378C175.318 10.1978 175.551 9.66162 176.018 9.22919C176.485 8.79676 177.091 8.58054 177.834 8.58054C178.578 8.58054 179.184 8.78811 179.651 9.20324C180.118 9.61838 180.351 10.1373 180.351 10.76C180.351 11.4346 180.118 11.9968 179.651 12.4465C179.184 12.8789 178.578 13.0951 177.834 13.0951Z" fill="#7F56D9"/>
<defs>
<linearGradient id="paint0_linear_61_15346" x1="0" y1="20.0001" x2="30.7044" y2="20.0001" gradientUnits="userSpaceOnUse">
<stop stop-color="#701BFF"/>
<stop offset="0.464" stop-color="#DE12FF"/>
<stop offset="1" stop-color="#FB038E"/>
</linearGradient>
</defs>
</svg>
