<svg width="36" height="24" viewBox="0 0 36 24" fill="none" xmlns="http://www.w3.org/2000/svg">
<path d="M8.31519 1.82422L8.37691 9.95668L10.7882 13.2635L28.1151 13.2564L28.0556 1.82422H8.31519Z" fill="#ECE3D2"/>
<path d="M30.2786 0H5.88745V0.393364H30.2786V0Z" fill="#000306"/>
<path d="M30.2791 15.0866V0L29.8857 0V15.0866H30.2791Z" fill="#000306"/>
<path d="M6.28076 10.1792L6.28076 0L5.8874 0L5.8874 10.1792H6.28076Z" fill="#000306"/>
<path d="M7.89429 10.1793L7.89429 1.62769H7.50091L7.50091 10.1793H7.89429Z" fill="#000306"/>
<path d="M10.346 13.8608L20.1443 13.8608V13.4191L10.346 13.4191V13.8608Z" fill="#000306"/>
<path d="M20.1447 13.4177H22.155V13.0244H20.1447V13.4177Z" fill="#000306"/>
<path d="M5.45366 10.5723H10.353V10.1789H5.45366V10.5723Z" fill="#000306"/>
<path d="M5.45323 10.9661H5.88745V10.5727H5.45323V10.9661Z" fill="#000306"/>
<path d="M5.84124 11.4136H6.28833V10.9665H5.84124V11.4136Z" fill="#000306"/>
<path d="M5.88762 10.9661H8.72778V10.5727H5.88762V10.9661Z" fill="#6C88B8"/>
<path d="M8.72735 11.7874H10.3528V10.5726H8.72735V11.7874Z" fill="#556AA0"/>
<path d="M5.88762 11.8069H8.72778V11.4135H5.88762V11.8069Z" fill="#6C88B8"/>
<path d="M6.28801 11.4136H9.12817V10.9665H6.28801V11.4136Z" fill="#D0D8EB"/>
<path d="M9.95218 13.0603H7.51294V13.4674H9.95218V13.0603Z" fill="#D49A4C"/>
<path d="M9.95218 12.2366H7.51294V12.6299H9.95218V12.2366Z" fill="#D49A4C"/>
<path d="M7.51288 12.2344H5.44702V13.4673H7.51288V12.2344Z" fill="#BA7948"/>
<path d="M9.9518 12.613H6.71826V13.0601H9.9518V12.613Z" fill="#D0D8EB"/>
<path d="M10.3465 14.6638H7.90723V15.071H10.3465V14.6638Z" fill="#B7686A"/>
<path d="M10.3465 13.8403H7.90723V14.2337H10.3465V13.8403Z" fill="#B7686A"/>
<path d="M7.90717 13.8381H5.84131V15.0711H7.90717V13.8381Z" fill="#AA5053"/>
<path d="M16.8685 15.4883H5.44702V16.2866H16.8685V15.4883Z" fill="#633740"/>
<path d="M17.286 13.8633H10.3057V15.0709H17.286V13.8633Z" fill="#633740"/>
<path d="M18.922 13.874H17.2864V15.0817H18.922V13.874Z" fill="#79424D"/>
<path d="M30.7031 15.4883H29.8853V16.2866H30.7031V15.4883Z" fill="#623740"/>
<path d="M29.8854 15.4834H16.8687V16.2861H29.8854V15.4834Z" fill="#79424D"/>
<path d="M10.3463 14.2168H7.11279V14.6639H10.3463V14.2168Z" fill="#D0D8EB"/>
<path d="M5.4467 12.2344H5.8938V11.4134H5.4467V12.2344Z" fill="#000306"/>
<path d="M4.99993 13.4673H5.44702V12.237H4.99993V13.4673Z" fill="#000306"/>
<path d="M5.45327 15.0916H5.84131V13.8613H5.45327V15.0916Z" fill="#000306"/>
<path d="M9.95208 12.613H10.3552V12.2365H9.95208V12.613Z" fill="#000306"/>
<path d="M9.95208 13.4673H10.3552V13.0602H9.95208V13.4673Z" fill="#000306"/>
<path d="M10.3464 14.2168H10.7495V13.8607H10.3464V14.2168Z" fill="#000306"/>
<path d="M10.3464 15.0754H10.7495V14.6723H10.3464V15.0754Z" fill="#000306"/>
<path d="M10.3527 11.7874H10.7998V10.5726H10.3527V11.7874Z" fill="#000306"/>
<path d="M5.8938 11.7873V12.2344H10.355V11.7873H5.8938Z" fill="#000306"/>
<path d="M5.45366 13.8608H10.353V13.4675H5.45366V13.8608Z" fill="#000306"/>
<path d="M5.06177 15.0754V15.4834L31.1147 15.4834V15.0754L5.06177 15.0754Z" fill="#000306"/>
<path d="M5.06128 16.2866V16.6946H31.1143V16.2866H5.06128Z" fill="#000306"/>
<path d="M25.3926 14.6929H25.8335V14.2627H25.3926V14.6929Z" fill="#000306"/>
<path d="M26.2749 14.6929H28.6685V14.2627H26.2749V14.6929Z" fill="#000306"/>
<path d="M25.0468 15.0867H25.4402V14.6933H25.0468V15.0867Z" fill="#000306"/>
<path d="M25.8229 14.2629H26.2749V13.811H25.8229V14.2629Z" fill="#000306"/>
<path d="M26.7262 14.2722H27.1782V13.8202H26.7262V14.2722Z" fill="#000306"/>
<path d="M28.216 14.2722H28.668V13.8202H28.216V14.2722Z" fill="#000306"/>
<path d="M27.055 13.811H28.668V13.4607H27.055V13.811Z" fill="#000306"/>
<path d="M27.4749 13.4771H27.9304V13.0295H27.4749V13.4771Z" fill="#000306"/>
<path d="M27.9272 13.4607H28.6682V12.2602H27.9272V13.4607Z" fill="#000306"/>
<path d="M27.1778 14.2722H28.2158V13.8202H27.1778V14.2722Z" fill="#77434F"/>
<path d="M23.3868 14.2625H25.8225V13.8202H23.3868V14.2625Z" fill="#7D444F"/>
<path d="M23.3872 14.7043H25.4402V14.2621H23.3872V14.7043Z" fill="#7D444F"/>
<path d="M23.3872 15.0754H25.0339V14.6332H23.3872V15.0754Z" fill="#7D444F"/>
<path d="M19.3168 15.0754H20.5271V13.8651H19.3168V15.0754Z" fill="#784739"/>
<path d="M20.1448 13.8652H20.9719V13.4177H20.1448V13.8652Z" fill="#784739"/>
<path d="M21.7075 13.8652H22.155V13.4177H21.7075V13.8652Z" fill="#784739"/>
<path d="M22.5464 15.0754H22.9939V13.8607H22.5464V15.0754Z" fill="#784739"/>
<path d="M20.5273 15.0754H22.5461V13.8607H20.5273V15.0754Z" fill="#88553F"/>
<path d="M20.9751 15.0754H21.4226V13.4194H20.9751V15.0754Z" fill="#89563F"/>
<path d="M21.2595 15.0754H21.707V13.4194H21.2595V15.0754Z" fill="#89563F"/>
<path d="M27.0381 13.0239H27.479V12.5622H27.0381V13.0239Z" fill="#000306"/>
<path d="M26.6447 13.4177H27.0381V13.0244H26.6447V13.4177Z" fill="#000306"/>
<path d="M27.4509 12.5842H27.835V12.2002H27.4509V12.5842Z" fill="#000306"/>
<path d="M27.8296 12.2051H28.2136V11.8068H27.8296V12.2051Z" fill="#000306"/>
<path d="M28.216 11.8069H28.675V11.4086H28.216V11.8069Z" fill="#000306"/>
<path d="M25.8335 14.7034H26.2744V14.2625H25.8335V14.7034Z" fill="#74AFC1"/>
<path d="M28.6683 14.7034H29.1091V11.3655H28.6683V14.7034Z" fill="#74AFC1"/>
<path d="M25.4398 15.0867H29.1089V14.6933H25.4398V15.0867Z" fill="#74AFC1"/>
<path d="M26.2743 14.2629H26.7263V13.811H26.2743V14.2629Z" fill="#74AFC1"/>
<path d="M27.0381 13.4771H27.479V13.0242H27.0381V13.4771Z" fill="#74AFC1"/>
<path d="M26.6442 13.8599H27.0549V13.4177H26.6442V13.8599Z" fill="#74AFC1"/>
<path d="M27.4789 13.0359H27.9309V12.5839H27.4789V13.0359Z" fill="#74AFC1"/>
<path d="M27.9308 13.4771H28.2993V13.0362H27.9308V13.4771Z" fill="#DFD2B2"/>
<path d="M27.4509 12.2002H27.8301V11.8068H27.4509V12.2002Z" fill="#DFD2B2"/>
<path d="M27.038 12.562H27.4509V12.2002H27.038V12.562Z" fill="#DFD2B2"/>
<path d="M26.6447 13.0239H27.0381V12.5622H26.6447V13.0239Z" fill="#DFD2B2"/>
<path d="M9.95179 13.0603H10.7998V12.6132H9.95179V13.0603Z" fill="#DFD2B2"/>
<path d="M10.355 11.7872V12.613H10.7994V11.7872H10.355Z" fill="#DFD2B2"/>
<path d="M10.7998 10.5726V11.7922H11.2442V10.5726H10.7998Z" fill="#DFD2B2"/>
<path d="M10.3552 10.1791V10.5725H10.7997V10.1791H10.3552Z" fill="#DFD2B2"/>
<path d="M8.69141 9.73477V10.1792H10.0091V9.73477H8.69141Z" fill="#DFD2B2"/>
<path d="M7.90332 2.02144L7.90332 10.1792H8.7278V2.02144H7.90332Z" fill="#DFD2B2"/>
<path d="M27.8296 2.02104V11.8069H28.2159V2.02104H27.8296Z" fill="#DFD2B2"/>
<path d="M27.4509 11.8068V12.2002H27.8301V11.8068H27.4509Z" fill="#DFD2B2"/>
<path d="M22.1552 13.4194H26.6448V13.0238H22.1552V13.4194Z" fill="#DFD2B2"/>
<path d="M10.3549 13.4194L20.1443 13.4194V13.0238L10.3549 13.0238V13.4194Z" fill="#DFD2B2"/>
<path d="M27.8298 12.6521H28.2817V12.2001H27.8298V12.6521Z" fill="#74AFC1"/>
<path d="M28.216 12.2583H28.668V11.8063H28.216V12.2583Z" fill="#74AFC1"/>
<path d="M28.6616 1.61743H29.0581V1.22096H28.6616V1.61743Z" fill="#653840"/>
<path d="M29.0576 1.61743H29.8848V1.22096H29.0576V1.61743Z" fill="#79424D"/>
<path d="M29.4719 1.22046H29.8857V0.806663H29.4719V1.22046Z" fill="#79424D"/>
<path d="M29.0577 0.807129H29.4714V0.393333L29.0577 0.393333V0.807129Z" fill="#79424D"/>
<path d="M28.6529 1.22046H29.0667V0.393311H28.6529V1.22046Z" fill="#79424D"/>
<path d="M17.2765 1.61743L28.6611 1.61743V0.393365L17.2765 0.393365V1.61743Z" fill="#79424D"/>
<path d="M29.0577 1.22046H29.4714V0.806663H29.0577V1.22046Z" fill="#653840"/>
<path d="M29.4719 0.806641H29.8853V0.393289L29.4719 0.393289V0.806641Z" fill="#653840"/>
<path d="M17.2763 0.393311H6.28101V1.62759H17.2763V0.393311Z" fill="#533039"/>
<path d="M7.50098 10.1792L7.50098 1.61743H6.28135V10.1792H7.50098Z" fill="#533039"/>
<path d="M7.10813 0.815186H6.69434V1.22898H7.10813V0.815186Z" fill="#44282E"/>
<path d="M6.69435 0.401855H6.28101V0.815207H6.69435V0.401855Z" fill="#44282E"/>
<path d="M18.9221 13.8106V15.0862H19.3155V13.8106H18.9221Z" fill="#000306"/>
<path d="M11.5754 16.6946V17.5315H11.9688V16.6946H11.5754Z" fill="#000306"/>
<path d="M13.5991 16.6946V17.5315H13.9925V16.6946H13.5991Z" fill="#000306"/>
<path d="M11.1816 17.5315V18.3684H11.575V17.5315H11.1816Z" fill="#000306"/>
<path d="M13.2058 17.5315V18.3684H13.5992V17.5315H13.2058Z" fill="#000306"/>
<path d="M10.7883 18.3684V19.2053H11.1817V18.3684H10.7883Z" fill="#000306"/>
<path d="M12.812 18.3686V19.146H13.2054V18.3686H12.812Z" fill="#000306"/>
<path d="M23.377 18.7622H13.2058V19.1463H23.377V18.7622Z" fill="#000306"/>
<path d="M24.2104 20.3767H12.019V20.7608H24.2104V20.3767Z" fill="#000306"/>
<path d="M10.3943 19.146V19.9829H10.7877V19.146H10.3943Z" fill="#000306"/>
<path d="M12.4185 19.146V19.9829H12.8118V19.146H12.4185Z" fill="#000306"/>
<path d="M10.001 19.9233V20.7603H10.3943V19.9233H10.001Z" fill="#000306"/>
<path d="M12.0186 19.9233V20.7603H12.4181V19.9233H12.0186Z" fill="#000306"/>
<path d="M9.56372 20.7603V21.5972H9.9571V20.7603H9.56372Z" fill="#000306"/>
<path d="M11.625 20.7603V21.5972H12.0184V20.7603H11.625Z" fill="#000306"/>
<path d="M9.16406 21.5972V22.4341H9.55743V21.5972H9.16406Z" fill="#000306"/>
<path d="M11.2312 21.5972V22.4341H11.6246V21.5972H11.2312Z" fill="#000306"/>
<path d="M8.77026 22.4341V23.271H9.16364V22.4341H8.77026Z" fill="#000306"/>
<path d="M10.8379 22.4341V23.271H11.2313V22.4341H10.8379Z" fill="#000306"/>
<path d="M8.37695 23.2705V23.9995H8.77032V23.2705H8.37695Z" fill="#000306"/>
<path d="M8.7561 23.6066V24H10.4446V23.6066H8.7561Z" fill="#000306"/>
<path d="M10.4446 23.271V24H10.8379V23.271H10.4446Z" fill="#000306"/>
<path d="M10.4446 22.8776V23.271H10.838V22.8776H10.4446Z" fill="#643741"/>
<path d="M8.77075 23.271V23.6062H10.0512V23.271H8.77075Z" fill="#79424D"/>
<path d="M9.16406 22.4346V23.2715H10.4445V22.4346H9.16406Z" fill="#79424D"/>
<path d="M9.55737 22.0408V22.8777H10.8378V22.0408H9.55737Z" fill="#79424D"/>
<path d="M9.55737 21.5972V22.0408H11.2316V21.5972H9.55737Z" fill="#79424D"/>
<path d="M9.95752 21.2038V21.5972H11.2318V21.2038H9.95752Z" fill="#79424D"/>
<path d="M9.95752 20.7598V21.2034H11.6256V20.7598H9.95752Z" fill="#79424D"/>
<path d="M10.3943 19.9828V20.7603H12.0122V19.9828H10.3943Z" fill="#79424D"/>
<path d="M26.1648 23.271V23.6062H27.4452V23.271H26.1648Z" fill="#79424D"/>
<path d="M25.771 22.4341V23.271H27.0514V22.4341H25.771Z" fill="#79424D"/>
<path d="M25.3772 22.0408V22.8777H26.6577V22.0408H25.3772Z" fill="#79424D"/>
<path d="M24.9836 21.5972V22.0408H26.6579V21.5972H24.9836Z" fill="#79424D"/>
<path d="M24.9836 21.2038V21.5972H26.2579V21.2038H24.9836Z" fill="#79424D"/>
<path d="M24.5903 20.7598V21.2034H26.2584V20.7598H24.5903Z" fill="#79424D"/>
<path d="M24.2026 19.9828V20.7603H25.8205V19.9828H24.2026Z" fill="#79424D"/>
<path d="M10.8384 22.0412V22.4346H11.2317V22.0412H10.8384Z" fill="#643741"/>
<path d="M11.2317 21.2038V21.5972H11.6251V21.2038H11.2317Z" fill="#643741"/>
<path d="M11.6252 19.9233V20.7603H12.0186V19.9233H11.6252Z" fill="#643741"/>
<path d="M10.3948 19.9828V20.3762H10.7881V19.9828H10.3948Z" fill="#643741"/>
<path d="M12.4185 18.7526V19.146H12.8118V18.7526H12.4185Z" fill="#643741"/>
<path d="M12.4185 18.3688V18.7622H12.8118V18.3688H12.4185Z" fill="#4E2C35"/>
<path d="M11.1816 18.3684V19.1934H12.4186V18.3684H11.1816Z" fill="#643741"/>
<path d="M11.9688 16.7008V17.5315H13.5991V16.7008H11.9688Z" fill="#4E2C35"/>
<path d="M11.5754 17.535V18.3657H13.2057V17.535H11.5754Z" fill="#4E2C35"/>
<path d="M10.7881 19.1935V19.9829H12.4184V19.1935H10.7881Z" fill="#643741"/>
<path d="M10.0513 23.2715V23.6067H10.4446V23.2715H10.0513Z" fill="#643741"/>
<path d="M24.2493 16.6946V17.5315H24.6426V16.6946H24.2493Z" fill="#000306"/>
<path d="M22.2256 16.6946V17.5315H22.6189V16.6946H22.2256Z" fill="#000306"/>
<path d="M24.6431 17.5315V18.3684H25.0364V17.5315H24.6431Z" fill="#000306"/>
<path d="M22.6191 17.5315V18.3684H23.0125V17.5315H22.6191Z" fill="#000306"/>
<path d="M25.0366 18.3684V19.2053H25.43V18.3684H25.0366Z" fill="#000306"/>
<path d="M23.0129 18.3686V19.146H23.4063V18.3686H23.0129Z" fill="#000306"/>
<path d="M25.4304 19.146V19.9829H25.8238V19.146H25.4304Z" fill="#000306"/>
<path d="M23.4062 19.146V19.9829H23.7996V19.146H23.4062Z" fill="#000306"/>
<path d="M25.8237 19.9233V20.7603H26.2171V19.9233H25.8237Z" fill="#000306"/>
<path d="M23.7996 19.9233V20.7603H24.1991V19.9233H23.7996Z" fill="#000306"/>
<path d="M26.261 20.7603V21.5972H26.6544V20.7603H26.261Z" fill="#000306"/>
<path d="M24.1997 20.7603V21.5972H24.5931V20.7603H24.1997Z" fill="#000306"/>
<path d="M26.6606 21.5972V22.4341H27.054V21.5972H26.6606Z" fill="#000306"/>
<path d="M24.593 21.5977V22.4346H24.9864V21.5977H24.593Z" fill="#000306"/>
<path d="M27.0544 22.4341V23.271H27.4478V22.4341H27.0544Z" fill="#000306"/>
<path d="M24.9868 22.4341V23.271H25.3802V22.4341H24.9868Z" fill="#000306"/>
<path d="M27.4482 23.271V24H27.8416V23.271H27.4482Z" fill="#000306"/>
<path d="M25.7739 23.6066V24H27.4624V23.6066H25.7739Z" fill="#000306"/>
<path d="M25.3806 23.271V24H25.774V23.271H25.3806Z" fill="#000306"/>
<path d="M25.3806 22.8776V23.271H25.774V22.8776H25.3806Z" fill="#643741"/>
<path d="M24.9868 22.0407V22.4341H25.3802V22.0407H24.9868Z" fill="#643741"/>
<path d="M24.5935 21.2038V21.5972H24.9869V21.2038H24.5935Z" fill="#643741"/>
<path d="M24.1997 19.9233V20.7603H24.5931V19.9233H24.1997Z" fill="#643741"/>
<path d="M25.4304 19.9828V20.3762H25.8238V19.9828H25.4304Z" fill="#643741"/>
<path d="M23.4067 18.7531V19.1465H23.8001V18.7531H23.4067Z" fill="#643741"/>
<path d="M23.4062 18.3688V18.7622H23.7996V18.3688H23.4062Z" fill="#4E2C35"/>
<path d="M23.8 18.3684V19.1934H25.037V18.3684H23.8Z" fill="#643741"/>
<path d="M22.6191 16.7008V17.5315H24.2494V16.7008H22.6191Z" fill="#4E2C35"/>
<path d="M23.0129 17.535V18.3657H24.6432V17.535H23.0129Z" fill="#4E2C35"/>
<path d="M23.8 19.1935V19.9829H25.4304V19.1935H23.8Z" fill="#643741"/>
<path d="M25.7739 23.271V23.6062H26.1673V23.271H25.7739Z" fill="#643741"/>
<path d="M5.06177 15.4834V16.6946H5.45513V15.4834H5.06177Z" fill="#000306"/>
<path d="M30.7214 15.4835V16.6587H31.1148V15.4835H30.7214Z" fill="#000306"/>
<path d="M22.9934 13.8111V15.0867H23.3868V13.8111H22.9934Z" fill="#000306"/>
<path d="M29.1089 11.3656V15.0862H29.5023V11.3656H29.1089Z" fill="#000306"/>
<path d="M28.6685 10.9721V11.3655H29.5031V10.9721H28.6685Z" fill="#000306"/>
<path d="M28.6755 1.61698V10.9722H29.8854V1.61698H28.6755Z" fill="#79424D"/>
<path d="M29.5027 10.9718V15.0862H29.8854V10.9718H29.5027Z" fill="#79424D"/>
<path d="M22.1552 13.8611H26.6448V13.4175H22.1552V13.8611Z" fill="#000306"/>
<path d="M28.6755 11.8064V1.6272H28.2165V11.8064H28.6755Z" fill="#000306"/>
<path d="M7.89442 2.021L28.6755 2.021V1.62762L7.89442 1.62762V2.021Z" fill="#000306"/>
<path d="M7.50487 1.229H7.1084V1.62548H7.50487V1.229Z" fill="#44282E"/>
</svg>
