<svg width="36" height="24" viewBox="0 0 36 24" fill="none" xmlns="http://www.w3.org/2000/svg">
<path d="M32.6704 17.0534V1.52954L28.0087 1.52954V17.0534H32.6704Z" fill="#CAD8E4"/>
<path d="M33.4423 18.5447H34.2234V0.0405865H33.4423V18.5447Z" fill="#000306"/>
<path d="M26.4823 18.5447H27.2634L27.2634 0.0405865H26.4823L26.4823 18.5447Z" fill="#000306"/>
<path d="M32.6729 17.0526V16.2715H31.8918V17.0526H32.6729Z" fill="#000306"/>
<path d="M28.0083 17.7939V17.0488H27.2632V17.7939H28.0083Z" fill="#C4D5E7"/>
<path d="M32.6702 17.7944V17.0493H28.0084V17.7944H32.6702Z" fill="#B7BFCC"/>
<path d="M28.0083 1.52948V0.784424H27.2632V1.52948H28.0083Z" fill="#C4D5E7"/>
<path d="M33.4414 1.5295V0.784424L28.0084 0.784424V1.5295L33.4414 1.5295Z" fill="#B7BFCC"/>
<path d="M32.6709 17.7937H33.4421V1.5294H32.6709V17.7937Z" fill="#B7BFCC"/>
<path d="M33.4421 18.5449V17.7998H27.2641V18.5449H33.4421Z" fill="#000306"/>
<path d="M33.4414 0.785096V0.0400391L27.2633 0.0400391V0.785096L33.4414 0.785096Z" fill="#000306"/>
<path d="M32.6704 10.8707V10.0896H28.0087V10.8707H32.6704Z" fill="#000306"/>
<path d="M32.6704 9.30771V8.52661H28.0087V9.30771H32.6704Z" fill="#000306"/>
<path d="M32.6704 7.74497V6.96387H28.0087V7.74497H32.6704Z" fill="#000306"/>
<path d="M28.79 6.182V5.40088H28.0089V6.182H28.79Z" fill="#000306"/>
<path d="M28.0083 17.0488V1.52954H27.2632V17.0488H28.0083Z" fill="#EFF5FB"/>
<path d="M32.6697 6.182V5.40088H31.8886V6.182H32.6697Z" fill="#000306"/>
<path d="M31.116 6.18198V5.40088H29.5583V6.18198H31.116Z" fill="#000306"/>
<path d="M32.6702 3.10887V1.53027L28.0084 1.53027V3.10887H32.6702Z" fill="#000306"/>
<path d="M31.116 15.4898V14.7087H29.5714V15.4898H31.116Z" fill="#000306"/>
<path d="M31.116 13.1544V12.3733H29.5714V13.1544H31.116Z" fill="#000306"/>
<path d="M28.7895 14.7087H29.5706V13.1544H28.7895V14.7087Z" fill="#000306"/>
<path d="M29.5714 14.7087H31.1257V13.1544H29.5714V14.7087Z" fill="#EDF3FB"/>
<path d="M31.1159 14.7087H31.897V13.1544H31.1159V14.7087Z" fill="#000306"/>
<path d="M27.2637 22.4438V20.8567H26.4826V22.4438H27.2637Z" fill="#000306"/>
<path d="M33.4419 22.4438V20.8567H32.6608V22.4438H33.4419Z" fill="#000306"/>
<path d="M27.2632 23.2256H32.6602V22.4445H27.2632V23.2256Z" fill="#000306"/>
<path d="M28.0449 20.8568V20.0757H27.2638V20.8568H28.0449Z" fill="#000306"/>
<path d="M31.8916 20.0756V19.2944H28.0451V20.0756H31.8916Z" fill="#000306"/>
<path d="M28.0449 22.4498V21.6536H27.2638V22.4498H28.0449Z" fill="#C7D7E6"/>
<path d="M29.5713 20.8573V20.0762H28.7902V20.8573H29.5713Z" fill="#C7D7E6"/>
<path d="M31.8784 20.8568V20.0757H30.3522V20.8568H31.8784Z" fill="#C7D7E6"/>
<path d="M31.8792 21.6529V20.8567H28.045V21.6529H31.8792Z" fill="#C7D7E6"/>
<path d="M32.6602 21.6536V20.8574H31.879V21.6536H32.6602Z" fill="#B5BEC5"/>
<path d="M32.6602 22.4498V21.6536H28.045V22.4498H32.6602Z" fill="#B6BCC8"/>
<path d="M28.0449 21.6536V20.8574H27.2638V21.6536H28.0449Z" fill="#EEF3FB"/>
<path d="M28.8267 20.8568V20.0757H28.0455V20.8568H28.8267Z" fill="#EEF3FB"/>
<path d="M30.353 20.8568V20.0757H29.5719V20.8568H30.353Z" fill="#000306"/>
<path d="M32.6602 20.8573V20.0762H31.879V20.8573H32.6602Z" fill="#000306"/>
<path d="M4.93018 19.2768V18.5356H4.18904V19.2768H4.93018Z" fill="#000306"/>
<path d="M4.18921 20.0177V19.2766H3.44807V20.0177H4.18921Z" fill="#000306"/>
<path d="M3.44824 20.7589V20.0178H2.70711V20.7589H3.44824Z" fill="#000306"/>
<path d="M6.4126 20.0185V19.2773H5.67146V20.0185H6.4126Z" fill="#000306"/>
<path d="M5.67163 20.759V20.0178H4.93049V20.759H5.67163Z" fill="#000306"/>
<path d="M7.89478 20.0185V19.2773H7.15364V20.0185H7.89478Z" fill="#000306"/>
<path d="M7.15381 20.7597V20.0186H6.41267V20.7597H7.15381Z" fill="#000306"/>
<path d="M9.3772 20.0177V19.2766H8.63606V20.0177H9.3772Z" fill="#000306"/>
<path d="M8.63599 20.7597V20.0186H7.89485V20.7597H8.63599Z" fill="#000306"/>
<path d="M18.6443 20.0179V20.759H19.3854V20.0179H18.6443Z" fill="#000306"/>
<path d="M19.3855 19.2767V20.0178H20.1266V19.2767H19.3855Z" fill="#000306"/>
<path d="M17.1614 20.0179V20.759H17.9025V20.0179H17.1614Z" fill="#000306"/>
<path d="M17.9031 19.2767V20.0178H18.6442V19.2767H17.9031Z" fill="#000306"/>
<path d="M20.1265 20.0186V20.7598H20.8676V20.0186H20.1265Z" fill="#000306"/>
<path d="M16.4202 19.2767V20.0178H17.1613V19.2767H16.4202Z" fill="#000306"/>
<path d="M13.2612 20.0186V20.7598H14.0024V20.0186H13.2612Z" fill="#000306"/>
<path d="M14.0022 19.2774V20.0186H14.7433V19.2774H14.0022Z" fill="#000306"/>
<path d="M11.7788 20.0186V20.7598H12.5199V20.0186H11.7788Z" fill="#000306"/>
<path d="M12.52 19.2774V20.0186H13.2612V19.2774H12.52Z" fill="#000306"/>
<path d="M11.0378 19.2767V20.0178H11.779V19.2767H11.0378Z" fill="#000306"/>
<path d="M2.7063 21.5009V20.7598H1.96518V21.5009H2.7063Z" fill="#000306"/>
<path d="M21.8167 19.2768V18.5356H21.0755V19.2768H21.8167Z" fill="#000306"/>
<path d="M22.5583 20.0177V19.2766H21.8172V20.0177H22.5583Z" fill="#000306"/>
<path d="M23.2996 20.759V20.0178H22.5584V20.759H23.2996Z" fill="#000306"/>
<path d="M24.0398 21.5002V20.759H23.2987V21.5002H24.0398Z" fill="#000306"/>
<path d="M5.67163 19.2768V18.5356H4.93049V19.2768H5.67163Z" fill="#EBF6F9"/>
<path d="M4.93018 20.0177V19.2766H4.18904V20.0177H4.93018Z" fill="#EBF6F9"/>
<path d="M4.18921 20.759V20.0178H3.44807V20.759H4.18921Z" fill="#EBF6F9"/>
<path d="M3.44751 21.5002V20.759H2.70639V21.5002H3.44751Z" fill="#EBF6F9"/>
<path d="M6.4126 19.2775V18.5364H5.67146V19.2775H6.4126Z" fill="#C7D7E6"/>
<path d="M7.15381 19.2773V18.5361H6.41267V19.2773H7.15381Z" fill="#B8BCCA"/>
<path d="M4.92944 21.5002V20.759H4.18832V21.5002H4.92944Z" fill="#B8BCCA"/>
<path d="M7.89478 19.2773V18.5361H7.15364V19.2773H7.89478Z" fill="#C7D7E6"/>
<path d="M11.7788 19.2768V18.5356H11.0377V19.2768H11.7788Z" fill="#C7D7E6"/>
<path d="M10.2964 19.2768V18.5356H8.63589V19.2768H10.2964Z" fill="#C7D7E6"/>
<path d="M7.15381 20.0185V19.2773H6.41267V20.0185H7.15381Z" fill="#C7D7E6"/>
<path d="M8.63599 20.0185V19.2773H7.89485V20.0185H8.63599Z" fill="#C7D7E6"/>
<path d="M11.0378 20.0177V19.2766H9.37733V20.0177H11.0378Z" fill="#C7D7E6"/>
<path d="M12.5205 20.0177V19.2766H11.7794V20.0177H12.5205Z" fill="#C7D7E6"/>
<path d="M14.0029 20.0177V19.2766H13.2618V20.0177H14.0029Z" fill="#C7D7E6"/>
<path d="M20.8682 20.0177V19.2766H20.127V20.0177H20.8682Z" fill="#C7D7E6"/>
<path d="M21.8167 20.7597V20.0186H20.8678V20.7597H21.8167Z" fill="#C7D7E6"/>
<path d="M22.5576 21.5002V20.759H21.8165V21.5002H22.5576Z" fill="#C7D7E6"/>
<path d="M16.4209 20.0185V19.2773H14.744V20.0185H16.4209Z" fill="#C7D7E6"/>
<path d="M17.1621 19.2773V18.5361H15.4852V19.2773H17.1621Z" fill="#C7D7E6"/>
<path d="M8.63599 19.2768V18.5356H7.89485V19.2768H8.63599Z" fill="#B8BCCA"/>
<path d="M8.63525 21.5009V20.7598H7.89413V21.5009H8.63525Z" fill="#C7D7E6"/>
<path d="M11.0378 21.5002V20.759H9.37735V21.5002H11.0378Z" fill="#C7D7E6"/>
<path d="M9.3772 21.5009V20.7598H8.63608V21.5009H9.3772Z" fill="#B8BCCA"/>
<path d="M5.6709 21.5002V20.759H4.92978V21.5002H5.6709Z" fill="#C7D7E6"/>
<path d="M6.41187 21.5009V20.7598H5.67074V21.5009H6.41187Z" fill="#B8BCCA"/>
<path d="M7.15308 21.5007V20.7595H6.41196V21.5007H7.15308Z" fill="#C7D7E6"/>
<path d="M7.89429 21.5007V20.7595H7.15317V21.5007H7.89429Z" fill="#B8BCCA"/>
<path d="M23.9771 23.259V22.2419H1.74633V23.259H23.9771Z" fill="#B8BCCA"/>
<path d="M11.0378 19.2768V18.5356H10.2967V19.2768H11.0378Z" fill="#B8BCCA"/>
<path d="M13.2617 19.2768V18.5356H12.5206V19.2768H13.2617Z" fill="#C7D7E6"/>
<path d="M12.52 19.2768V18.5356H11.7789V19.2768H12.52Z" fill="#B8BCCA"/>
<path d="M14.7439 19.2768V18.5356H14.0028V19.2768H14.7439Z" fill="#C7D7E6"/>
<path d="M14.0029 19.2768V18.5356H13.2618V19.2768H14.0029Z" fill="#B8BCCA"/>
<path d="M15.4851 19.2775V18.5364H14.744V19.2775H15.4851Z" fill="#B8BCCA"/>
<path d="M17.9194 21.5002V20.759H17.1783V21.5002H17.9194Z" fill="#C7D7E6"/>
<path d="M17.1785 21.5009V20.7598H16.4373V21.5009H17.1785Z" fill="#B8BCCA"/>
<path d="M19.4019 21.5002V20.759H18.6607V21.5002H19.4019Z" fill="#C7D7E6"/>
<path d="M18.6606 21.5002V20.759H17.9195V21.5002H18.6606Z" fill="#B8BCCA"/>
<path d="M20.884 21.5002V20.759H20.1429V21.5002H20.884Z" fill="#C7D7E6"/>
<path d="M20.1428 21.5002V20.759H19.4017V21.5002H20.1428Z" fill="#B8BCCA"/>
<path d="M21.8167 21.5002V20.759H20.8842V21.5002H21.8167Z" fill="#B8BCCA"/>
<path d="M23.2988 21.5002V20.759H22.5577V21.5002H23.2988Z" fill="#B8BCCA"/>
<path d="M12.52 21.5002V20.759H11.7789V21.5002H12.52Z" fill="#C7D7E6"/>
<path d="M11.7788 21.5009V20.7598H11.0377V21.5009H11.7788Z" fill="#B8BCCA"/>
<path d="M14.0022 21.5002V20.759H13.2611V21.5002H14.0022Z" fill="#C7D7E6"/>
<path d="M13.2612 21.5002V20.759H12.5201V21.5002H13.2612Z" fill="#B8BCCA"/>
<path d="M16.4373 21.5002V20.759H14.744V21.5002H16.4373Z" fill="#C7D7E6"/>
<path d="M14.7432 21.5002V20.759H14.002V21.5002H14.7432Z" fill="#B8BCCA"/>
<path d="M16.4209 20.7597V20.0186H14.744V20.7597H16.4209Z" fill="#B8BCCA"/>
<path d="M11.0378 20.759V20.0178H9.37733V20.759H11.0378Z" fill="#B8BCCA"/>
<path d="M18.6443 19.2768V18.5356H17.9032V19.2768H18.6443Z" fill="#C7D7E6"/>
<path d="M17.9031 19.2768V18.5356H17.1619V19.2768H17.9031Z" fill="#B8BCCA"/>
<path d="M20.1265 19.2768V18.5356H19.3853V19.2768H20.1265Z" fill="#C7D7E6"/>
<path d="M17.9031 20.0177V19.2766H17.1619V20.0177H17.9031Z" fill="#C7D7E6"/>
<path d="M19.3855 20.0177V19.2766H18.6444V20.0177H19.3855Z" fill="#C7D7E6"/>
<path d="M18.6443 20.759V20.0178H17.9032V20.759H18.6443Z" fill="#C7D7E6"/>
<path d="M20.1265 20.7597V20.0186H19.3853V20.7597H20.1265Z" fill="#C7D7E6"/>
<path d="M19.3855 19.2768V18.5356H18.6444V19.2768H19.3855Z" fill="#B8BCCA"/>
<path d="M21.8167 20.0185V19.2773H20.8678V20.0185H21.8167Z" fill="#B8BCCA"/>
<path d="M21.0754 19.2773V18.5361H20.1266V19.2773H21.0754Z" fill="#B8BCCA"/>
<path d="M22.5583 20.759V20.0178H21.8172V20.759H22.5583Z" fill="#B8BCCA"/>
<path d="M5.67163 20.0177V19.2766H4.93049V20.0177H5.67163Z" fill="#C7D7E6"/>
<path d="M4.93018 20.759V20.0178H4.18904V20.759H4.93018Z" fill="#C7D7E6"/>
<path d="M6.4126 20.7597V20.0186H5.67146V20.7597H6.4126Z" fill="#C7D7E6"/>
<path d="M7.89478 20.7597V20.0186H7.15364V20.7597H7.89478Z" fill="#C7D7E6"/>
<path d="M9.3772 20.7597V20.0186H8.63606V20.7597H9.3772Z" fill="#C7D7E6"/>
<path d="M11.7795 20.759V20.0178H11.0384V20.759H11.7795Z" fill="#C7D7E6"/>
<path d="M13.2617 20.7589V20.0178H12.5206V20.7589H13.2617Z" fill="#C7D7E6"/>
<path d="M14.7439 20.759V20.0178H14.0028V20.759H14.7439Z" fill="#C7D7E6"/>
<path d="M17.1621 20.7589V20.0178H16.421V20.7589H17.1621Z" fill="#C7D7E6"/>
<path d="M18.6443 20.759V20.0178H17.9032V20.759H18.6443Z" fill="#C7D7E6"/>
<path d="M20.1265 20.7597V20.0186H19.3853V20.7597H20.1265Z" fill="#C7D7E6"/>
<path d="M4.18848 21.5002V20.759H3.44736V21.5002H4.18848Z" fill="#C7D7E6"/>
<path d="M1.74097 24.0002V22.2073H0.99983L0.99983 24.0002H1.74097Z" fill="#000306"/>
<path d="M24.7188 24.0002V22.2073H23.9776V24.0002H24.7188Z" fill="#000306"/>
<path d="M24.718 22.2419V21.5007H0.999796V22.2419H24.718Z" fill="#000306"/>
<path d="M24.8989 24.0002V23.259H0.999844V24.0002H24.8989Z" fill="#000306"/>
<path d="M21.0754 18.5356V17.7944H4.92975V18.5356H21.0754Z" fill="#000306"/>
<path d="M1.7811 0.781006H1V16.2714H1.7811V0.781006Z" fill="#000306"/>
<path d="M24.9703 0.781006H24.1892V16.2714H24.9703V0.781006Z" fill="#000306"/>
<path d="M24.1899 0.781101V0L1.78164 0V0.781101L24.1899 0.781101Z" fill="#000306"/>
<path d="M24.1892 17.0526V16.2715H1.78091V17.0526H24.1892Z" fill="#000306"/>
<path d="M24.1899 16.2716V15.4905L1.78163 15.4905V16.2716H24.1899Z" fill="#BABEC7"/>
<path d="M23.4082 15.4903V13.9045L2.54574 13.9045V15.4903L23.4082 15.4903Z" fill="#CAD8E4"/>
<path d="M22.6265 13.1236V2.34473L3.3439 2.34473V13.1236L22.6265 13.1236Z" fill="#D8D8D8"/>
<path d="M3.34399 15.4903V14.7092H2.56289V15.4903H3.34399Z" fill="#000306"/>
<path d="M5.67163 15.4899V14.7087H4.07404V15.4899H5.67163Z" fill="#000306"/>
<path d="M7.19897 15.4898V14.7087H6.41787V15.4898H7.19897Z" fill="#000306"/>
<path d="M11.0376 17.7944V17.0532H10.2965V17.7944H11.0376Z" fill="#000306"/>
<path d="M16.4373 17.7944V17.0532H15.6961V17.7944H16.4373Z" fill="#000306"/>
<path d="M23.4082 13.9039V13.1228L2.56276 13.1228V13.9039L23.4082 13.9039Z" fill="#000306"/>
<path d="M23.4082 2.34384V1.56274L2.56278 1.56274V2.34384L23.4082 2.34384Z" fill="#000306"/>
<path d="M2.56288 13.1235H3.34399L3.34399 2.34467H2.56288L2.56288 13.1235Z" fill="#000306"/>
<path d="M22.6271 13.1235H23.4082V2.34467H22.6271V13.1235Z" fill="#000306"/>
<path d="M23.4077 15.4898V14.7087H21.8619V15.4898H23.4077Z" fill="#D24A43"/>
<path d="M23.4081 15.491H24.1892L24.1892 0.78167H23.4081V15.491Z" fill="#BABEC7"/>
<path d="M2.56274 0.781643V1.56274L23.4082 1.56274V0.781643L2.56274 0.781643Z" fill="#BABEC7"/>
<path d="M2.56212 0.781006H1.78101V15.4903H2.56212V0.781006Z" fill="#EDF6FD"/>
<path d="M7.501 2.81714H6.74414V4.38328H7.501V2.81714Z" fill="#9682BA"/>
<path d="M6.74422 4.35767H5.96509V5.14073H6.74422V4.35767Z" fill="#9682BA"/>
<path d="M8.28013 4.35767H7.50098V5.14073H8.28013V4.35767Z" fill="#9682BA"/>
<path d="M6.74422 5.8938H5.96509V6.67687H6.74422V5.8938Z" fill="#9682BA"/>
<path d="M8.28013 5.8938H7.50098V6.67687H8.28013V5.8938Z" fill="#9682BA"/>
<path d="M7.501 6.67676H6.74414V8.24291H7.501V6.67676Z" fill="#9682BA"/>
<path d="M9.84714 5.14087H8.28101V5.89445H9.84714V5.14087Z" fill="#9682BA"/>
<path d="M5.96506 5.14087H4.39893V5.89445H5.96506V5.14087Z" fill="#9682BA"/>
</svg>
