<svg width="16" height="19" viewBox="0 0 16 19" fill="none" xmlns="http://www.w3.org/2000/svg">
<path d="M3.20001 7.36666C3.20001 4.41329 4.47119 2.03333 8.00021 2.03333C11.5228 2.03333 12.8 4.41329 12.8 7.36666" stroke="#151621" stroke-width="1.2" stroke-linecap="round" stroke-linejoin="round"/>
<path d="M1.06665 10.9086C1.06665 8.25809 2.90268 7.59546 3.82069 7.59546C5.47312 7.59546 5.88623 8.92071 5.88623 9.58334V12.2339C5.88623 13.8242 4.50921 14.2218 3.82069 14.2218C2.90268 14.2218 1.06665 13.5591 1.06665 10.9086Z" stroke="#151621" stroke-width="1.2" stroke-linecap="round" stroke-linejoin="round"/>
<path d="M14.9316 10.9086C14.9316 8.25809 13.0956 7.59546 12.1776 7.59546C10.5251 7.59546 10.112 8.92071 10.112 9.58334V12.2339C10.112 13.8242 11.4891 14.2218 12.1776 14.2218C13.0956 14.2218 14.9316 13.5591 14.9316 10.9086Z" stroke="#151621" stroke-width="1.2" stroke-linecap="round" stroke-linejoin="round"/>
<path d="M14.9303 10.7723C14.9303 10.7723 15.2514 14.9693 13.3071 16.182C11.3626 17.3948 8.95996 16.84 8.95996 16.84" stroke="#151621" stroke-width="1.2" stroke-linecap="round" stroke-linejoin="round"/>
</svg>
