<svg width="16" height="19" viewBox="0 0 16 19" fill="none" xmlns="http://www.w3.org/2000/svg">
<path d="M3.19995 7.36666C3.19995 4.41329 4.47113 2.03333 8.00015 2.03333C11.5227 2.03333 12.7999 4.41329 12.7999 7.36666" stroke="white" stroke-width="1.2" stroke-linecap="round" stroke-linejoin="round"/>
<path d="M1.06665 10.9085C1.06665 8.25803 2.90268 7.5954 3.82069 7.5954C5.47312 7.5954 5.88623 8.92065 5.88623 9.58328V12.2338C5.88623 13.8241 4.50921 14.2217 3.82069 14.2217C2.90268 14.2217 1.06665 13.559 1.06665 10.9085Z" stroke="white" stroke-width="1.2" stroke-linecap="round" stroke-linejoin="round"/>
<path d="M14.9317 10.9085C14.9317 8.25803 13.0957 7.5954 12.1777 7.5954C10.5252 7.5954 10.1121 8.92065 10.1121 9.58328V12.2338C10.1121 13.8241 11.4892 14.2217 12.1777 14.2217C13.0957 14.2217 14.9317 13.559 14.9317 10.9085Z" stroke="white" stroke-width="1.2" stroke-linecap="round" stroke-linejoin="round"/>
<path d="M14.9303 10.7723C14.9303 10.7723 15.2514 14.9693 13.3071 16.182C11.3626 17.3948 8.95996 16.84 8.95996 16.84" stroke="white" stroke-width="1.2" stroke-linecap="round" stroke-linejoin="round"/>
</svg>
