<svg width="20" height="20" viewBox="0 0 20 20" fill="none" xmlns="http://www.w3.org/2000/svg">
<g clip-path="url(#clip0_529_18861)">
<path d="M11.104 8.89586L4.53384 15.466M5.2429 10.6978L2.02473 9.93761C1.67067 9.85397 1.54614 9.41441 1.80263 9.15699L4.36192 6.5977C4.53384 6.42578 4.7671 6.32727 5.0115 6.32542L7.89698 6.30033M11.5315 2.99852C13.6791 4.4631 15.5368 6.32077 17.0013 8.46838M9.30115 14.757L10.0613 17.9751C10.145 18.3292 10.5845 18.4537 10.8419 18.1972L13.4012 15.6379C13.5731 15.466 13.6717 15.2328 13.6735 14.9884L13.6986 12.1029M17.5524 6.95827L18.3033 3.34515C18.5077 2.36195 17.6379 1.49212 16.6547 1.69657L13.0416 2.44745C11.9775 2.66862 11.0018 3.19553 10.2342 3.96406L7.2697 6.9276C6.13874 8.05856 5.40274 9.525 5.17041 11.1076L5.16019 11.1754C5.01336 12.1856 5.35163 13.205 6.07276 13.9271C6.7939 14.6482 7.81427 14.9865 8.82442 14.8387L8.89226 14.8285C10.4749 14.5971 11.9413 13.8602 13.0723 12.7292L16.0358 9.76569C16.8043 8.99808 17.3312 8.02232 17.5524 6.95827Z" stroke="#F9FAFB" stroke-width="1.67" stroke-linecap="round" stroke-linejoin="round"/>
</g>
<defs>
<clipPath id="clip0_529_18861">
<rect width="20" height="20" fill="white"/>
</clipPath>
</defs>
</svg>
