<svg width="20" height="20" viewBox="0 0 20 20" fill="none" xmlns="http://www.w3.org/2000/svg">
<g clip-path="url(#clip0_544_13151)">
<path d="M11.1039 8.89611L4.53378 15.4663M5.24284 10.698L2.02467 9.93785C1.67061 9.85421 1.54608 9.41465 1.80257 9.15724L4.36186 6.59795C4.53378 6.42602 4.76704 6.32752 5.01144 6.32566L7.89692 6.30057M11.5314 2.99877C13.679 4.46334 15.5367 6.32101 17.0013 8.46863M9.30109 14.7572L10.0613 17.9754C10.1449 18.3294 10.5845 18.454 10.8419 18.1975L13.4012 15.6382C13.5731 15.4663 13.6716 15.233 13.6735 14.9886L13.6985 12.1031M17.5523 6.95851L18.3032 3.34539C18.5077 2.36219 17.6378 1.49237 16.6546 1.69682L13.0415 2.44769C11.9775 2.66886 11.0017 3.19578 10.2341 3.96431L7.26964 6.92785C6.13868 8.05881 5.40268 9.52524 5.17035 11.1078L5.16013 11.1757C5.0133 12.1858 5.35157 13.2053 6.0727 13.9273C6.79384 14.6485 7.81421 14.9867 8.82436 14.839L8.8922 14.8288C10.4748 14.5974 11.9412 13.8604 13.0722 12.7295L16.0357 9.76593C16.8043 8.99833 17.3312 8.02256 17.5523 6.95851Z" stroke="#6941C6" stroke-width="1.67" stroke-linecap="round" stroke-linejoin="round"/>
</g>
<defs>
<clipPath id="clip0_544_13151">
<rect width="20" height="20" fill="white"/>
</clipPath>
</defs>
</svg>
